<svg width="16" height="16" viewBox="0 0 16 16" fill="none" xmlns="http://www.w3.org/2000/svg">
<path d="M16 14.75V6.25C16 6.09475 15.9639 5.94164 15.8944 5.80279C15.825 5.66393 15.7242 5.54315 15.6 5.45L8.6 0.2C8.4269 0.0701777 8.21637 0 8 0C7.78363 0 7.5731 0.0701777 7.4 0.2L0.4 5.45C0.275804 5.54315 0.175 5.66393 0.105573 5.80279C0.036145 5.94164 0 6.09475 0 6.25V14.75C0 15.0152 0.105357 15.2696 0.292893 15.4571C0.48043 15.6446 0.734784 15.75 1 15.75H5C5.26522 15.75 5.51957 15.6446 5.70711 15.4571C5.89464 15.2696 6 15.0152 6 14.75V11.75C6 11.4848 6.10536 11.2304 6.29289 11.0429C6.48043 10.8554 6.73478 10.75 7 10.75H9C9.26522 10.75 9.51957 10.8554 9.70711 11.0429C9.89464 11.2304 10 11.4848 10 11.75V14.75C10 15.0152 10.1054 15.2696 10.2929 15.4571C10.4804 15.6446 10.7348 15.75 11 15.75H15C15.2652 15.75 15.5196 15.6446 15.7071 15.4571C15.8946 15.2696 16 15.0152 16 14.75Z" fill="white"/>
</svg>
