<svg width="303" height="304" viewBox="0 0 303 304" fill="none" xmlns="http://www.w3.org/2000/svg">
<path d="M151.493 0C148.049 0 144.746 1.36819 142.311 3.80359C139.875 6.23899 138.507 9.5421 138.507 12.9863C138.507 16.4305 139.875 19.7336 142.311 22.169C144.746 24.6044 148.049 25.9726 151.493 25.9726C184.787 25.9726 216.717 39.1984 240.259 62.7406C263.802 86.2828 277.027 118.213 277.027 151.507C277.027 184.8 263.802 216.73 240.259 240.273C216.717 263.815 184.787 277.041 151.493 277.041C148.049 277.041 144.746 278.409 142.311 280.844C139.875 283.28 138.507 286.583 138.507 290.027C138.507 293.471 139.875 296.774 142.311 299.21C144.746 301.645 148.049 303.013 151.493 303.013C191.676 303.013 230.212 287.051 258.625 258.638C287.038 230.225 303 191.689 303 151.507C303 111.325 287.038 72.7882 258.625 44.3752C230.212 15.9623 191.676 0 151.493 0Z" fill="#E84343"/>
<path d="M74.0968 108.725C76.3907 106.263 77.6395 103.007 77.5801 99.6429C77.5208 96.2786 76.1579 93.0687 73.7786 90.6894C71.3993 88.31 68.1893 86.9471 64.825 86.8878C61.4606 86.8284 58.2046 88.0772 55.7428 90.3711L3.79774 142.316C1.36584 144.751 -0.000123975 148.052 -0.000123975 151.493C-0.000123975 154.935 1.36584 158.235 3.79774 160.67L55.7428 212.615C56.9317 213.891 58.3654 214.915 59.9584 215.624C61.5514 216.334 63.271 216.716 65.0147 216.747C66.7583 216.777 68.4903 216.457 70.1074 215.803C71.7244 215.15 73.1933 214.178 74.4264 212.945C75.6596 211.712 76.6317 210.243 77.2849 208.626C77.938 207.009 78.2588 205.277 78.228 203.533C78.1972 201.79 77.8156 200.07 77.1058 198.477C76.396 196.884 75.3727 195.45 74.0968 194.261L44.3149 164.479H186.125C189.569 164.479 192.872 163.111 195.308 160.676C197.743 158.24 199.111 154.937 199.111 151.493C199.111 148.049 197.743 144.746 195.308 142.311C192.872 139.875 189.569 138.507 186.125 138.507H44.3149L74.0968 108.725Z" fill="#E84343"/>
</svg>
