<svg width="14" height="14" viewBox="0 0 14 14" fill="none" xmlns="http://www.w3.org/2000/svg">
<path d="M1 7.25C1 8.9076 1.65848 10.4973 2.83058 11.6694C4.00268 12.8415 5.5924 13.5 7.25 13.5C8.9076 13.5 10.4973 12.8415 11.6694 11.6694C12.8415 10.4973 13.5 8.9076 13.5 7.25C13.5 5.5924 12.8415 4.00268 11.6694 2.83058C10.4973 1.65848 8.9076 1 7.25 1C5.5924 1 4.00268 1.65848 2.83058 2.83058C1.65848 4.00268 1 5.5924 1 7.25Z" stroke="white" stroke-linecap="round" stroke-linejoin="round"/>
<path d="M9.99192 4.06055L9.46692 10.8825L6.58492 7.92455L3.16992 7.20955L9.99192 4.06055Z" stroke="white" stroke-linecap="round" stroke-linejoin="round"/>
<path d="M5.31299 7.65616L5.82599 10.6182L7.70299 9.06216M6.58199 7.91016L7.67599 7.03516" stroke="white" stroke-linecap="round" stroke-linejoin="round"/>
</svg>
