<svg width="1166" height="400" viewBox="0 0 1166 400" fill="none" xmlns="http://www.w3.org/2000/svg">
<path d="M624.837 249.5C627.037 249.5 628.937 250.3 630.537 251.9C632.137 253.5 632.937 255.4 632.937 257.6V299.9C632.937 302.1 632.137 304 630.537 305.6C628.937 307.2 627.037 308 624.837 308H435.237C433.037 308 431.137 307.2 429.537 305.6C427.937 304 427.137 302.1 427.137 299.9V106.1C427.137 103.9 427.937 102 429.537 100.4C431.137 98.8 433.037 98 435.237 98H621.837C624.037 98 625.937 98.8 627.537 100.4C629.137 102 629.937 103.9 629.937 106.1V148.4C629.937 150.6 629.137 152.5 627.537 154.1C625.937 155.7 624.037 156.5 621.837 156.5H505.137V175.4H605.337C607.537 175.4 609.437 176.2 611.037 177.8C612.637 179.4 613.437 181.3 613.437 183.5V222.5C613.437 224.7 612.637 226.6 611.037 228.2C609.437 229.8 607.537 230.6 605.337 230.6H505.137V249.5H624.837ZM754.92 227C754.92 235.2 757.62 241.5 763.02 245.9C768.62 250.3 776.12 252.5 785.52 252.5C793.92 252.5 800.12 251.1 804.12 248.3C808.12 245.5 811.52 241.3 814.32 235.7C816.92 230.5 820.42 227.9 824.82 227.9H889.62C891.42 227.9 892.92 228.6 894.12 230C895.52 231.2 896.22 232.7 896.22 234.5C896.22 246.7 892.12 258.7 883.92 270.5C875.72 282.1 863.22 291.8 846.42 299.6C829.82 307.2 809.52 311 785.52 311C764.12 311 745.02 307.8 728.22 301.4C711.62 294.8 698.42 284.8 688.62 271.4C678.82 257.8 673.92 240.9 673.92 220.7V185.3C673.92 165.1 678.82 148.3 688.62 134.9C698.42 121.3 711.62 111.3 728.22 104.9C745.02 98.3 764.12 95 785.52 95C809.52 95 829.82 98.9 846.42 106.7C863.22 114.3 875.72 124 883.92 135.8C892.12 147.4 896.22 159.3 896.22 171.5C896.22 173.3 895.52 174.9 894.12 176.3C892.92 177.5 891.42 178.1 889.62 178.1H824.82C820.42 178.1 816.92 175.5 814.32 170.3C811.52 164.7 808.12 160.5 804.12 157.7C800.12 154.9 793.92 153.5 785.52 153.5C776.12 153.5 768.62 155.7 763.02 160.1C757.62 164.5 754.92 170.8 754.92 179V227ZM1149 221.3C1149 251.9 1138.8 274.5 1118.4 289.1C1098.2 303.7 1071.2 311 1037.4 311C1003.6 311 976.503 303.7 956.103 289.1C935.903 274.5 925.803 251.7 925.803 220.7V185.3C925.803 164.9 930.603 148 940.203 134.6C950.003 121 963.303 111 980.103 104.6C996.903 98.2 1016 95 1037.4 95C1058.8 95 1077.8 98.2 1094.4 104.6C1111.2 111 1124.5 120.9 1134.3 134.3C1144.1 147.7 1149 164.5 1149 184.7V221.3ZM1006.8 227C1006.8 235.2 1009.5 241.5 1014.9 245.9C1020.5 250.3 1028 252.5 1037.4 252.5C1046.8 252.5 1054.2 250.3 1059.6 245.9C1065.2 241.3 1068 234.9 1068 226.7V179.3C1068 171.1 1065.2 164.8 1059.6 160.4C1054.2 155.8 1046.8 153.5 1037.4 153.5C1028 153.5 1020.5 155.7 1014.9 160.1C1009.5 164.5 1006.8 170.8 1006.8 179V227Z" fill="white"/>
<path d="M236.482 67.7911C226.404 96.2294 290.439 164.824 310.433 171.949C330.477 179.108 327.664 115.578 330.528 80.4915C333.43 44.3106 338.332 7.93311 318.26 0.735105C298.271 -6.34499 246.633 39.3472 236.482 67.7911Z" fill="white"/>
<path d="M237.539 91.0035C228.757 115.629 284.443 175.195 301.782 181.456C319.092 187.615 316.705 132.507 319.204 101.958C321.719 70.5717 325.874 38.9892 308.558 32.785C291.119 26.5864 246.348 66.2259 237.539 91.0035Z" fill="black"/>
<path d="M102.561 67.7911C112.668 96.2294 48.6268 164.824 28.5937 171.949C8.58865 179.108 11.3735 115.578 8.58865 80.4915C5.57919 44.3106 0.7618 7.93311 20.7725 0.735105C40.7775 -6.34499 92.4606 39.3472 102.561 67.7911Z" fill="white"/>
<path d="M101.481 91.0035C110.313 115.629 54.7049 175.195 37.3725 181.456C19.9558 187.609 22.3589 132.501 19.8659 101.958C17.345 70.5717 13.1957 38.9892 30.5956 32.785C47.9 26.5864 92.8061 66.2259 101.481 91.0035Z" fill="black"/>
<path d="M340 203.448C340 303.175 270.586 349.766 170.83 349.766C71.0631 349.766 1.66016 303.17 1.66016 203.448C1.66016 103.692 71.0799 34.2778 170.83 34.2778C270.569 34.2778 340 103.703 340 203.448Z" fill="white"/>
<path d="M75.4762 60.3193C29.6268 89.218 1.66016 140.205 1.66016 203.443V203.443C1.66016 289.855 73.2907 218.137 71.5204 131.743C71.071 109.812 72.2502 86.0551 75.4762 60.3362" fill="white"/>
<path d="M260.181 170.087C260.181 200.883 243.494 225.829 222.972 225.829C202.411 225.829 185.725 200.883 185.725 170.087C185.725 139.285 202.411 114.355 222.972 114.355C243.5 114.355 260.181 139.279 260.181 170.087Z" fill="white"/>
<path d="M247.038 170.108C247.038 186.244 236.292 199.27 223.019 199.27C209.678 199.27 198.904 186.244 198.904 170.108C198.904 153.949 209.678 140.895 223.019 140.895C236.292 140.895 247.038 153.949 247.038 170.108Z" fill="#181C31"/>
<path d="M229.975 156.57C229.975 165.227 226.83 172.274 222.973 172.274C219.02 172.274 215.865 165.227 215.865 156.57C215.865 147.906 219.02 140.899 222.973 140.899C226.836 140.899 229.975 147.901 229.975 156.57ZM155.962 167.675C155.962 198.466 139.275 223.418 118.759 223.418C98.1926 223.418 81.5059 198.466 81.5059 167.675C81.5059 136.868 98.1926 111.944 118.759 111.944C139.275 111.944 155.962 136.868 155.962 167.675Z" fill="white"/>
<path d="M142.795 167.696C142.795 183.838 132.043 196.864 118.77 196.864C105.435 196.864 94.6609 183.838 94.6609 167.696C94.6609 151.537 105.435 138.488 118.77 138.488C132.038 138.488 142.795 151.537 142.795 167.696Z" fill="#181C31"/>
<g filter="url(#filter0_d_154_92)">
<path d="M125.784 154.162C125.784 162.82 122.64 169.866 118.777 169.866C114.83 169.866 111.674 162.82 111.674 154.162C111.674 145.498 114.83 138.491 118.777 138.491C122.64 138.491 125.784 145.498 125.784 154.162Z" fill="white"/>
</g>
<path d="M84.4338 263.394C84.4338 231.384 120.789 231.996 170.265 231.996C219.86 231.996 263.884 231.384 263.884 263.394C263.884 295.38 223.756 321.281 174.128 321.281C124.629 321.281 84.4338 295.386 84.4338 263.394Z" fill="#E7E6E6"/>
<path d="M130.632 312.611C130.632 291.96 148.251 292.359 172.276 292.359C196.212 292.359 217.643 291.966 217.643 312.611C217.643 333.385 198.098 350.19 174.14 350.19C150.138 350.19 130.621 333.385 130.621 312.611" fill="black"/>
<path d="M141.489 244.509C141.489 231.152 152.831 231.421 168.277 231.421C183.801 231.421 197.585 231.152 197.585 244.509C197.585 257.906 185.009 268.742 169.523 268.742C154.049 268.742 141.489 257.906 141.489 244.509Z" fill="black"/>
<path d="M108.814 258.378C71.4873 258.154 35.6545 268.159 2.39321 284.677C-4.02997 287.861 3.95409 294.935 9.04098 292.42C40.7526 276.676 74.5136 267.115 110.083 267.322C117.561 267.367 115.383 258.418 108.814 258.378ZM112.783 272.303C79.7465 283.936 44.5369 290.618 16.5478 312.97C11.343 317.124 20.989 322.767 25.3067 319.325C52.4424 297.647 87.3487 291.319 119.431 280.04C126.096 277.693 118.005 270.467 112.783 272.303ZM230.141 258.378C267.467 258.154 303.244 268.159 336.567 284.677C343.001 287.861 335 294.935 329.919 292.42C298.202 276.676 264.43 267.115 228.872 267.322C221.376 267.367 223.572 258.418 230.141 258.378ZM226.16 272.303C259.197 283.936 294.406 290.618 322.396 312.97C327.6 317.124 317.943 322.767 313.631 319.325C286.49 297.647 251.589 291.319 219.518 280.04C212.837 277.693 220.939 270.467 226.16 272.303Z" fill="black"/>
<ellipse cx="90.2783" cy="167.352" rx="36.3198" ry="29.9374" fill="black"/>
<path d="M321.176 144.62C321.176 176.136 298.405 222.185 260.794 222.185C223.184 222.185 188.208 183.339 188.208 151.822C188.208 120.306 214.833 111.932 252.444 111.932C290.054 111.932 321.176 113.103 321.176 144.62Z" fill="black"/>
<path d="M23.1294 150.161C23.1294 181.678 45.901 227.726 83.5113 227.726C121.122 227.726 156.098 188.88 156.098 157.364C156.098 125.847 129.472 117.473 91.862 117.473C54.2517 117.473 23.1294 118.645 23.1294 150.161Z" fill="black"/>
<path d="M336.775 139.5C343.893 129.653 330.177 117.324 318.317 114.68C302.118 111.068 285.904 107.379 269.329 107.5C255.814 107.557 242.232 109.614 228.849 111.5C213.81 113.614 199.3 118.471 184.261 120.243C179.425 120.814 174.522 121.043 169.619 121.043C164.717 121.043 159.814 120.814 154.978 120.243C139.938 118.414 125.429 113.614 110.39 111.5C96.9403 109.557 83.3585 107.557 69.843 107.5C53.2634 107.42 37.044 111.095 20.8395 114.694C8.98829 117.327 -4.69191 129.598 2.33159 139.5V139.5C5.90923 144.528 11.9382 149.043 13.462 155.843C17.1722 171.9 22.4061 187.614 29.1639 202.7C32.4103 210.014 38.5717 215.157 45.462 218.643C62.0252 227.1 81.6359 228.357 99.8554 225.728C125.76 221.957 139.806 202.186 150.539 179.557C154.58 170.357 154.978 159.786 160.278 151.386C162.265 148.243 165.843 147.9 169.553 148.071C173.263 147.9 176.907 148.243 178.828 151.386C184.129 159.786 184.526 170.414 188.568 179.557C199.3 202.186 213.346 221.9 239.251 225.728C257.404 228.414 277.081 227.157 293.644 218.643C300.534 215.157 306.696 210.014 309.942 202.7C316.634 187.614 321.934 171.9 325.644 155.843C327.168 149.043 333.263 144.528 336.775 139.5V139.5ZM135.3 183.328C122.447 210.471 99.3254 216.128 82.2322 216.128C75.6069 216.128 68.6504 215.271 61.5614 213.557C48.9071 210.528 39.4993 201.386 35.0604 187.957C29.0976 170.014 26.6463 155.557 27.3088 142.586C28.2363 125.786 45.7933 122.357 65.2715 120.129C74.3481 119.1 81.6359 118.586 88.1949 118.529H88.2612C97.0728 118.529 104.029 119.214 110.522 120.586C129.404 124.643 140.137 130.243 144.245 138.243C148.816 147.214 146.232 160.3 135.3 183.328ZM304.112 187.957C299.673 201.386 290.199 210.471 277.611 213.557C270.522 215.271 263.565 216.128 256.874 216.128C239.781 216.128 216.659 210.414 203.806 183.328C192.874 160.3 190.29 147.271 194.928 138.3C199.035 130.3 209.768 124.7 228.65 120.643C235.077 119.271 242.1 118.586 250.911 118.586H250.977C257.536 118.643 264.824 119.157 273.901 120.186C293.379 122.414 310.936 125.786 311.864 142.643C312.526 155.557 310.075 169.957 304.112 187.957Z" fill="black"/>
<defs>
<filter id="filter0_d_154_92" x="107.674" y="138.491" width="22.1096" height="39.3745" filterUnits="userSpaceOnUse" color-interpolation-filters="sRGB">
<feFlood flood-opacity="0" result="BackgroundImageFix"/>
<feColorMatrix in="SourceAlpha" type="matrix" values="0 0 0 0 0 0 0 0 0 0 0 0 0 0 0 0 0 0 127 0" result="hardAlpha"/>
<feOffset dy="4"/>
<feGaussianBlur stdDeviation="2"/>
<feComposite in2="hardAlpha" operator="out"/>
<feColorMatrix type="matrix" values="0 0 0 0 0 0 0 0 0 0 0 0 0 0 0 0 0 0 0.25 0"/>
<feBlend mode="normal" in2="BackgroundImageFix" result="effect1_dropShadow_154_92"/>
<feBlend mode="normal" in="SourceGraphic" in2="effect1_dropShadow_154_92" result="shape"/>
</filter>
</defs>
</svg>
