<svg width="960" height="960" viewBox="0 0 960 960" fill="none" xmlns="http://www.w3.org/2000/svg">
<rect x="19.5" y="19.5" width="921" height="921" rx="460.5" fill="#FFB800" stroke="#2A1B11" stroke-width="39"/>
<path d="M489.4 555H453.4V702.2L521.4 707C523 710.2 522.733 717.4 520.6 728.6C515.8 748.867 504.067 759 485.4 759H295V752.6C295 723.267 306.733 707.533 330.2 705.4L353.4 703.8V266.2L295 261.4C294.467 248.067 296.867 236.333 302.2 226.2C307.533 216.067 315.533 211 326.2 211H513.4C578.467 211 629.133 224.867 665.4 252.6C701.667 279.8 719.8 317.933 719.8 367C719.8 426.2 699.533 472.333 659 505.4C618.467 538.467 561.933 555 489.4 555ZM453.4 505.4H479C521.667 505.4 555 493.667 579 470.2C603.533 446.733 615.8 415.533 615.8 376.6C615.8 337.133 606.2 307.533 587 287.8C567.8 268.067 540.867 258.733 506.2 259.8L453.4 261.4V505.4Z" fill="black"/>
<rect x="795.139" y="302.193" width="605" height="56.4143" transform="rotate(157.694 795.139 302.193)" fill="black"/>
</svg>
