<svg width="1200" height="1200" viewBox="0 0 1200 1200" fill="none" xmlns="http://www.w3.org/2000/svg">
<rect width="1200" height="1200" rx="600" fill="#140F33"/>
<path d="M717.321 410.631C699.536 460.817 812.539 581.866 847.822 594.439C883.195 607.072 878.231 494.96 883.284 433.044C888.407 369.195 897.056 305 861.634 292.297C826.361 279.803 735.235 360.436 717.321 410.631Z" fill="white"/>
<path d="M719.186 451.594C703.689 495.052 801.959 600.168 832.556 611.216C863.103 622.085 858.892 524.836 863.301 470.925C867.74 415.538 875.072 359.804 844.515 348.856C813.74 337.917 734.732 407.869 719.186 451.594Z" fill="black"/>
<path d="M480.991 410.631C498.826 460.817 385.812 581.866 350.46 594.439C315.157 607.072 320.071 494.96 315.157 433.044C309.846 369.195 301.344 305 336.657 292.297C371.96 279.803 463.166 360.436 480.991 410.631Z" fill="white"/>
<path d="M479.084 451.594C494.669 495.052 396.538 600.168 365.951 611.216C335.216 622.075 339.457 524.826 335.057 470.925C330.609 415.538 323.286 359.804 353.992 348.856C384.529 337.917 463.775 407.869 479.084 451.594Z" fill="black"/>
<path d="M900 650.025C900 826.015 777.504 908.233 601.465 908.233C425.405 908.233 302.93 826.005 302.93 650.025C302.93 473.986 425.435 351.49 601.465 351.49C777.475 351.49 900 474.005 900 650.025Z" fill="white"/>
<path d="M433.193 397.446C352.283 448.443 302.93 538.42 302.93 650.017V650.017C302.93 802.509 429.337 675.947 426.212 523.487C425.419 484.786 427.5 442.862 433.193 397.476" fill="white"/>
<path d="M759.142 591.153C759.142 645.499 729.695 689.522 693.48 689.522C657.196 689.522 627.749 645.499 627.749 591.153C627.749 536.796 657.196 492.804 693.48 492.804C729.705 492.804 759.142 536.786 759.142 591.153Z" fill="white"/>
<path d="M735.949 591.19C735.949 619.666 716.985 642.654 693.562 642.654C670.02 642.654 651.006 619.666 651.006 591.19C651.006 562.674 670.02 539.638 693.562 539.638C716.985 539.638 735.949 562.674 735.949 591.19Z" fill="#181C31"/>
<path d="M705.838 567.299C705.838 582.578 700.289 595.013 693.482 595.013C686.507 595.013 680.938 582.578 680.938 567.299C680.938 552.011 686.507 539.646 693.482 539.646C700.299 539.646 705.838 552.001 705.838 567.299ZM575.227 586.898C575.227 641.235 545.78 685.267 509.575 685.267C473.281 685.267 443.834 641.235 443.834 586.898C443.834 532.531 473.281 488.549 509.575 488.549C545.78 488.549 575.227 532.531 575.227 586.898Z" fill="white"/>
<path d="M551.991 586.933C551.991 615.419 533.017 638.406 509.594 638.406C486.062 638.406 467.048 615.419 467.048 586.933C467.048 558.417 486.062 535.391 509.594 535.391C533.007 535.391 551.991 558.417 551.991 586.933Z" fill="#181C31"/>
<g filter="url(#filter0_d_155_116)">
<path d="M521.971 563.05C521.971 578.328 516.422 590.763 509.605 590.763C502.64 590.763 497.071 578.328 497.071 563.05C497.071 547.761 502.64 535.396 509.605 535.396C516.422 535.396 521.971 547.761 521.971 563.05Z" fill="white"/>
</g>
<path d="M449 755.813C449 699.326 513.156 700.406 600.467 700.406C687.987 700.406 765.677 699.326 765.677 755.813C765.677 812.26 694.863 857.967 607.284 857.967C519.933 857.967 449 812.27 449 755.813Z" fill="#E7E6E6"/>
<path d="M530.528 842.667C530.528 806.224 561.62 806.928 604.017 806.928C646.256 806.928 684.076 806.234 684.076 842.667C684.076 879.327 649.585 908.983 607.307 908.983C564.949 908.983 530.508 879.327 530.508 842.667" fill="black"/>
<path d="M549.687 722.486C549.687 698.915 569.702 699.39 596.959 699.39C624.355 699.39 648.68 698.915 648.68 722.486C648.68 746.128 626.486 765.25 599.159 765.25C571.852 765.25 549.687 746.128 549.687 722.486Z" fill="black"/>
<path d="M492.024 746.962C426.154 746.565 362.92 764.222 304.223 793.372C292.888 798.99 306.978 811.474 315.955 807.035C371.916 779.253 431.495 762.379 494.263 762.745C507.461 762.825 503.617 747.031 492.024 746.962ZM499.029 771.534C440.729 792.064 378.595 803.855 329.202 843.299C320.017 850.631 337.039 860.589 344.659 854.515C392.545 816.26 454.145 805.093 510.76 785.188C522.522 781.046 508.244 768.294 499.029 771.534ZM706.131 746.962C772.001 746.565 835.136 764.222 893.942 793.372C905.297 798.99 891.177 811.474 882.21 807.035C826.239 779.253 766.641 762.379 703.892 762.745C690.664 762.825 694.538 747.031 706.131 746.962ZM699.106 771.534C757.406 792.064 819.541 803.855 868.933 843.299C878.118 850.631 861.076 860.589 853.467 854.515C805.57 816.26 743.981 805.093 687.385 785.188C675.594 781.046 689.892 768.294 699.106 771.534Z" fill="black"/>
<ellipse cx="459.314" cy="586.326" rx="64.0938" ry="52.8307" fill="black"/>
<path d="M866.782 546.211C866.782 601.828 826.596 683.09 760.225 683.09C693.854 683.09 632.131 614.538 632.131 558.921C632.131 503.304 679.117 488.526 745.489 488.526C811.86 488.526 866.782 490.593 866.782 546.211Z" fill="black"/>
<path d="M340.817 555.99C340.817 611.607 381.002 692.87 447.373 692.87C513.745 692.87 575.468 624.318 575.468 568.7C575.468 513.083 528.481 498.305 462.11 498.305C395.739 498.305 340.817 500.373 340.817 555.99Z" fill="black"/>
<path d="M894.308 537.176C906.87 519.799 882.665 498.043 861.736 493.377C833.149 487.003 804.536 480.493 775.287 480.706C751.436 480.807 727.469 484.437 703.851 487.765C677.311 491.496 651.707 500.067 625.167 503.193C616.632 504.202 607.98 504.605 599.328 504.605C590.676 504.605 582.025 504.202 573.49 503.193C546.95 499.966 521.345 491.496 494.805 487.765C471.071 484.336 447.103 480.807 423.252 480.706C393.994 480.564 365.372 487.049 336.776 493.402C315.862 498.048 291.72 519.702 304.115 537.176V537.176C310.428 546.05 321.067 554.017 323.757 566.017C330.304 594.353 339.54 622.084 351.466 648.706C357.195 661.613 368.068 670.689 380.227 676.84C409.456 691.764 444.063 693.983 476.215 689.344C521.93 682.689 546.716 647.798 565.656 607.865C572.788 591.63 573.49 572.975 582.843 558.151C586.351 552.605 592.664 552 599.211 552.302C605.759 552 612.189 552.605 615.58 558.151C624.933 572.975 625.634 591.731 632.766 607.865C651.707 647.798 676.493 682.588 722.207 689.344C754.242 694.084 788.967 691.865 818.196 676.84C830.355 670.689 841.228 661.613 846.957 648.706C858.766 622.084 868.119 594.353 874.666 566.017C877.355 554.017 888.112 546.05 894.308 537.176V537.176ZM538.766 614.521C516.084 662.42 475.28 672.403 445.116 672.403C433.424 672.403 421.148 670.891 408.638 667.865C386.307 662.521 369.705 646.386 361.871 622.689C351.349 591.025 347.023 565.512 348.192 542.622C349.829 512.975 380.812 506.924 415.185 502.991C431.203 501.176 444.063 500.269 455.638 500.168H455.755C471.305 500.168 483.581 501.378 495.039 503.798C528.36 510.958 547.3 520.84 554.549 534.958C562.617 550.79 558.057 573.882 538.766 614.521ZM836.668 622.689C828.835 646.386 812.116 662.42 789.902 667.865C777.392 670.891 765.116 672.403 753.307 672.403C723.143 672.403 682.339 662.319 659.657 614.521C640.366 573.882 635.806 550.891 643.99 535.059C651.239 520.941 670.18 511.059 703.501 503.899C714.842 501.479 727.235 500.269 742.785 500.269H742.901C754.476 500.37 767.337 501.277 783.355 503.092C817.728 507.025 848.711 512.975 850.348 542.723C851.517 565.512 847.191 590.924 836.668 622.689Z" fill="black"/>
<defs>
<filter id="filter0_d_155_116" x="493.071" y="535.396" width="32.8994" height="63.3672" filterUnits="userSpaceOnUse" color-interpolation-filters="sRGB">
<feFlood flood-opacity="0" result="BackgroundImageFix"/>
<feColorMatrix in="SourceAlpha" type="matrix" values="0 0 0 0 0 0 0 0 0 0 0 0 0 0 0 0 0 0 127 0" result="hardAlpha"/>
<feOffset dy="4"/>
<feGaussianBlur stdDeviation="2"/>
<feComposite in2="hardAlpha" operator="out"/>
<feColorMatrix type="matrix" values="0 0 0 0 0 0 0 0 0 0 0 0 0 0 0 0 0 0 0.25 0"/>
<feBlend mode="normal" in2="BackgroundImageFix" result="effect1_dropShadow_155_116"/>
<feBlend mode="normal" in="SourceGraphic" in2="effect1_dropShadow_155_116" result="shape"/>
</filter>
</defs>
</svg>
